<?xml version="1.0" encoding="UTF-8"?>
<svg id="Layer_1" data-name="Layer 1" xmlns="http://www.w3.org/2000/svg" viewBox="0 0 440.92 156.23">
  <path d="m40.21,113.14c.13,1.6-.77,2.67-2.7,3.2-1.93.53-4.3.53-7.1,0-2.8-.53-5.8-1.6-9-3.2-3.2-1.6-6-3.67-8.4-6.2-2.4-2.53-4.13-5.57-5.2-9.1-1.07-3.53-.93-7.5.4-11.9,1.33-4.4,3.77-8.23,7.3-11.5,3.53-3.27,7.93-5.87,13.2-7.8,5.27-1.93,11.2-3.17,17.8-3.7,6.6-.53,13.7-.2,21.3,1,1.2-6.53,2.37-12.83,3.5-18.9,1.13-6.07,2.17-11.6,3.1-16.6.93-5,1.8-9.3,2.6-12.9.8-3.6,1.47-6.13,2-7.6.8-2.13,2.2-3.6,4.2-4.4,2-.8,4.2-1.13,6.6-1,2.4.13,4.87.63,7.4,1.5,2.53.87,4.73,1.9,6.6,3.1,1.87,1.2,3.27,2.5,4.2,3.9.93,1.4,1,2.63.2,3.7-.67.93-1.37,3.13-2.1,6.6-.73,3.47-1.5,7.8-2.3,13-.8,5.2-1.67,11.1-2.6,17.7-.93,6.6-1.93,13.37-3,20.3l17.8,7.2c1.33-8.13,2.8-16.23,4.4-24.3,1.6-8.07,3.3-15.43,5.1-22.1,1.8-6.67,3.6-12.3,5.4-16.9,1.8-4.6,3.57-7.5,5.3-8.7,3.2-2.27,6.7-3.47,10.5-3.6,3.8-.13,7.27.27,10.4,1.2,3.13.93,5.57,2.1,7.3,3.5,1.73,1.4,2.07,2.5,1,3.3-1.07.8-2.37,3.67-3.9,8.6-1.53,4.93-3.13,11.1-4.8,18.5-1.67,7.4-3.37,15.6-5.1,24.6-1.73,9-3.27,17.97-4.6,26.9,3.07.4,5.2.2,6.4-.6,1.07-.67,2.07-.4,3,.8.93,1.2,1.53,2.77,1.8,4.7.27,1.93.1,3.87-.5,5.8-.6,1.93-1.9,3.23-3.9,3.9-2.27.8-5.27.87-9,.2-.67,5.07-1.27,9.87-1.8,14.4-.53,4.53-.9,8.6-1.1,12.2-.2,3.6-.23,6.67-.1,9.2.13,2.53.4,4.27.8,5.2.53,1.07.23,2.03-.9,2.9-1.13.87-2.77,1.53-4.9,2-2.13.47-4.5.6-7.1.4s-5.17-.73-7.7-1.6c-2.53-.87-4.77-2.13-6.7-3.8-1.93-1.67-3.23-3.9-3.9-6.7-.4-1.6-.63-3.83-.7-6.7-.07-2.87,0-6.2.2-10,.2-3.8.53-8,1-12.6.47-4.6,1.03-9.43,1.7-14.5-2.93-.93-5.93-1.77-9-2.5-3.07-.73-6.13-1.37-9.2-1.9-1.07,6.27-2.13,12.37-3.2,18.3-1.07,5.93-2.17,11.33-3.3,16.2-1.13,4.87-2.3,9.13-3.5,12.8-1.2,3.67-2.4,6.37-3.6,8.1-2,2.67-4.37,4.4-7.1,5.2-2.73.8-5.47.93-8.2.4-2.73-.53-5.4-1.5-8-2.9-2.6-1.4-4.8-2.9-6.6-4.5-1.8-1.6-3-3.1-3.6-4.5-.6-1.4-.37-2.37.7-2.9.93-.4,1.93-1.87,3-4.4,1.07-2.53,2.17-5.8,3.3-9.8,1.13-4,2.3-8.6,3.5-13.8,1.2-5.2,2.4-10.73,3.6-16.6-7.6,2.4-13.27,5.6-17,9.6-3.73,4-5.47,7.53-5.2,10.6Z"/>
  <path d="m185.41,115.54c0,1.73.2,3.57.6,5.5.4,1.93,1.03,3.73,1.9,5.4.87,1.67,1.9,3.03,3.1,4.1,1.2,1.07,2.53,1.53,4,1.4,1.73-.13,3.8-1.2,6.2-3.2,2.4-2,4.8-4.63,7.2-7.9,2.4-3.27,4.7-7.03,6.9-11.3,2.2-4.27,4.1-8.8,5.7-13.6.4-1.07,1.13-1.7,2.2-1.9,1.07-.2,2.2-.17,3.4.1,1.2.27,2.2.7,3,1.3.8.6,1.13,1.17,1,1.7-2.27,5.6-4.37,10.63-6.3,15.1-1.93,4.47-3.97,8.5-6.1,12.1-2.13,3.6-4.43,6.83-6.9,9.7-2.47,2.87-5.37,5.5-8.7,7.9-3.07,2.27-6.47,3.9-10.2,4.9-3.73,1-7.4,1.27-11,.8-3.6-.47-7-1.77-10.2-3.9-3.2-2.13-5.8-5.27-7.8-9.4-1.87-3.6-3-7.67-3.4-12.2-.4-4.53-.27-9.13.4-13.8.67-4.67,1.87-9.2,3.6-13.6,1.73-4.4,3.8-8.4,6.2-12,3.73-5.47,8.3-9.27,13.7-11.4,5.4-2.13,10.5-2.7,15.3-1.7,4.8,1,8.73,3.47,11.8,7.4,3.07,3.93,4.27,9.17,3.6,15.7-.4,3.07-1.4,6.47-3,10.2-1.6,3.73-3.7,6.93-6.3,9.6-2.6,2.67-5.6,4.47-9,5.4-3.4.93-7.03.13-10.9-2.4Zm16-31.6c-1.33.27-2.83,1.07-4.5,2.4-1.67,1.33-3.23,3.07-4.7,5.2-1.47,2.13-2.77,4.53-3.9,7.2-1.13,2.67-1.83,5.33-2.1,8,2.27.53,4.57-.4,6.9-2.8,2.33-2.4,4.3-5.1,5.9-8.1s2.7-5.77,3.3-8.3c.6-2.53.3-3.73-.9-3.6Z"/>
  <path d="m271.01,33.54c-1.73,1.07-3.77,4.2-6.1,9.4-2.33,5.2-4.67,11.4-7,18.6-2.33,7.2-4.53,14.83-6.6,22.9-2.07,8.07-3.8,15.57-5.2,22.5-1.4,6.93-2.27,12.7-2.6,17.3-.33,4.6.1,7.03,1.3,7.3,1.07.27,2.5-.87,4.3-3.4,1.8-2.53,3.7-5.63,5.7-9.3,2-3.67,3.87-7.6,5.6-11.8,1.73-4.2,3.13-7.83,4.2-10.9.53-1.6,1.43-2.63,2.7-3.1,1.27-.47,2.5-.5,3.7-.1,1.2.4,2.17,1.1,2.9,2.1.73,1,.7,2.23-.1,3.7-3.2,6.4-6.2,12.77-9,19.1-2.8,6.33-6.47,12.77-11,19.3-2.53,3.6-5.47,6.27-8.8,8-3.33,1.73-6.63,2.57-9.9,2.5-3.27-.07-6.23-1.03-8.9-2.9-2.67-1.87-4.53-4.67-5.6-8.4-.93-3.33-1.43-7.9-1.5-13.7-.07-5.8.2-12.17.8-19.1.6-6.93,1.47-14.2,2.6-21.8,1.13-7.6,2.4-14.87,3.8-21.8,1.4-6.93,2.9-13.2,4.5-18.8,1.6-5.6,3.13-10,4.6-13.2,1.6-3.33,3.77-5.63,6.5-6.9,2.73-1.27,5.63-1.83,8.7-1.7,3.07.13,6.07.8,9,2,2.93,1.2,5.47,2.57,7.6,4.1,2.13,1.53,3.6,3.07,4.4,4.6.8,1.53.6,2.7-.6,3.5Z"/>
  <path d="m314.21,33.54c-1.73,1.07-3.77,4.2-6.1,9.4-2.33,5.2-4.67,11.4-7,18.6-2.33,7.2-4.53,14.83-6.6,22.9-2.07,8.07-3.8,15.57-5.2,22.5-1.4,6.93-2.27,12.7-2.6,17.3-.33,4.6.1,7.03,1.3,7.3,1.07.27,2.5-.87,4.3-3.4,1.8-2.53,3.7-5.63,5.7-9.3,2-3.67,3.87-7.6,5.6-11.8,1.73-4.2,3.13-7.83,4.2-10.9.53-1.6,1.43-2.63,2.7-3.1,1.27-.47,2.5-.5,3.7-.1,1.2.4,2.17,1.1,2.9,2.1.73,1,.7,2.23-.1,3.7-3.2,6.4-6.2,12.77-9,19.1-2.8,6.33-6.47,12.77-11,19.3-2.53,3.6-5.47,6.27-8.8,8-3.33,1.73-6.63,2.57-9.9,2.5-3.27-.07-6.23-1.03-8.9-2.9-2.67-1.87-4.53-4.67-5.6-8.4-.93-3.33-1.43-7.9-1.5-13.7-.07-5.8.2-12.17.8-19.1.6-6.93,1.47-14.2,2.6-21.8,1.13-7.6,2.4-14.87,3.8-21.8,1.4-6.93,2.9-13.2,4.5-18.8,1.6-5.6,3.13-10,4.6-13.2,1.6-3.33,3.77-5.63,6.5-6.9,2.73-1.27,5.63-1.83,8.7-1.7,3.07.13,6.07.8,9,2,2.93,1.2,5.47,2.57,7.6,4.1,2.13,1.53,3.6,3.07,4.4,4.6.8,1.53.6,2.7-.6,3.5Z"/>
  <path d="m362.01,79.94c2.27,4.27,3.57,9.2,3.9,14.8.33,5.6-.17,11.4-1.5,17.4,1.73-.53,3.23-1.57,4.5-3.1,1.27-1.53,2.3-3.13,3.1-4.8.8-1.67,1.47-3.27,2-4.8.53-1.53.93-2.7,1.2-3.5.53-1.6,1.27-2.7,2.2-3.3.93-.6,1.83-.83,2.7-.7.87.13,1.6.53,2.2,1.2.6.67.83,1.6.7,2.8-.27,1.73-.97,4.23-2.1,7.5-1.13,3.27-2.77,6.67-4.9,10.2-2.13,3.53-4.73,6.87-7.8,10-3.07,3.13-6.67,5.37-10.8,6.7-2,3.2-4.23,6.13-6.7,8.8-2.47,2.67-5.2,4.87-8.2,6.6-3,1.73-6.23,2.87-9.7,3.4-3.47.53-7.13.27-11-.8-5.6-1.47-9.8-4.47-12.6-9-2.8-4.53-4.57-9.6-5.3-15.2-.73-5.6-.6-11.27.4-17,1-5.73,2.5-10.53,4.5-14.4,1.33-7.07,4.37-12.6,9.1-16.6,4.73-4,9.97-6.53,15.7-7.6,5.73-1.07,11.27-.63,16.6,1.3,5.33,1.93,9.27,5.3,11.8,10.1Zm-22.6,40c.4-3.33,2.07-5.67,5-7,1.33-3.47,2.3-6.83,2.9-10.1.6-3.27.63-5.97.1-8.1-.93-3.33-2.67-5.23-5.2-5.7-2.53-.47-4.73.03-6.6,1.5.67,0,1.37.2,2.1.6.73.4,1.3,1,1.7,1.8.4.8.53,1.7.4,2.7-.13,1-.8,1.97-2,2.9-2.53,2.4-4.73,5.37-6.6,8.9-1.87,3.53-3.2,7.03-4,10.5-.8,3.47-.97,6.57-.5,9.3.47,2.73,1.77,4.43,3.9,5.1,1.2.4,2.57-.2,4.1-1.8,1.53-1.6,3.1-3.8,4.7-6.6-.27-1.2-.27-2.53,0-4Z"/>
  <path d="m391.01,126.74c0-.4,1.13-.5,3.4-.3,2.27.2,4.77.77,7.5,1.7,2.73.93,5.23,2.13,7.5,3.6,2.27,1.47,3.33,3.27,3.2,5.4-.13,1.73-.37,3.2-.7,4.4-.33,1.2-.63,2.3-.9,3.3-.27,1-.5,2-.7,3-.2,1-.23,2.1-.1,3.3.13,1.47-.87,2.3-3,2.5-2.13.2-4.6-.03-7.4-.7-2.8-.67-5.43-1.67-7.9-3-2.47-1.33-3.9-2.8-4.3-4.4-.27-1.2-.27-2.6,0-4.2.27-1.6.67-3.27,1.2-5,.53-1.73,1.03-3.43,1.5-5.1.47-1.67.7-3.17.7-4.5Zm10-99.2c-.13-1.73.63-3.13,2.3-4.2,1.67-1.07,3.73-1.7,6.2-1.9,2.47-.2,5.13-.03,8,.5,2.87.53,5.53,1.47,8,2.8,2.47,1.33,4.5,3.07,6.1,5.2,1.6,2.13,2.33,4.67,2.2,7.6-.13,2-.7,5.27-1.7,9.8-1,4.53-2.23,9.63-3.7,15.3-1.47,5.67-3,11.57-4.6,17.7-1.6,6.13-3.07,11.97-4.4,17.5-1.33,5.53-2.4,10.37-3.2,14.5-.8,4.13-1.07,6.93-.8,8.4.4,2-.57,3-2.9,3s-5-.67-8-2c-3-1.33-5.8-3.1-8.4-5.3-2.6-2.2-4.03-4.43-4.3-6.7-.13-1.87,0-4.83.4-8.9.4-4.07.93-8.7,1.6-13.9.67-5.2,1.43-10.73,2.3-16.6.87-5.87,1.7-11.5,2.5-16.9.8-5.4,1.43-10.4,1.9-15,.47-4.6.63-8.23.5-10.9Z"/>
</svg>