<?xml version="1.0" encoding="UTF-8"?>
<svg xmlns="http://www.w3.org/2000/svg" xmlns:xlink="http://www.w3.org/1999/xlink" viewBox="0 0 1261.85 872.15">
  <defs>
    <style>
      .cls-1 {
        fill: #68009d;
      }

      .cls-2 {
        fill: #840078;
      }

      .cls-3 {
        stroke: #2f00e9;
        stroke-linecap: round;
        stroke-miterlimit: 10;
        stroke-width: 4.79px;
      }

      .cls-3, .cls-4 {
        fill: #d90006;
      }

      .cls-5 {
        fill: #bd002c;
      }

      .cls-6 {
        fill: #4b00c3;
      }

      .cls-7 {
        fill: #2f00e9;
      }

      .cls-8 {
        fill: url(#linear-gradient);
      }

      .cls-9 {
        fill: #a00052;
      }
    </style>
    <linearGradient id="linear-gradient" x1="749.74" y1="557.88" x2="665.71" y2="473.85" gradientUnits="userSpaceOnUse">
      <stop offset=".02" stop-color="#d90006" stop-opacity=".4"/>
      <stop offset="1" stop-color="#2f00e9" stop-opacity=".4"/>
    </linearGradient>
  </defs>
  <g id="Layer_4" data-name="Layer 4">
    <rect class="cls-8" x="-19.12" y="-9.9" width="1296.93" height="894.78"/>
  </g>
  <g id="Layer_2" data-name="Layer 2">
    <g>
      <g>
        <path class="cls-7" d="m198.31,1147.15c-84.97,0-164.8-31.2-224.78-87.86-59.67-56.36-92.53-131.2-92.53-210.75s32.86-154.39,92.53-210.75c59.98-56.65,139.81-87.86,224.78-87.86s164.8,31.2,224.78,87.86c59.67,56.36,92.53,131.2,92.53,210.75s-32.86,154.39-92.53,210.75c-59.98,56.66-139.81,87.86-224.78,87.86Z"/>
        <path class="cls-7" d="m198.31,569.95c40.43,0,79.61,7.46,116.46,22.18,35.47,14.17,67.29,34.43,94.59,60.21,27.14,25.63,48.42,55.42,63.25,88.54,15.27,34.1,23.01,70.33,23.01,107.67s-7.74,73.56-23.01,107.67c-14.83,33.12-36.11,62.91-63.25,88.54-27.3,25.79-59.12,46.04-94.59,60.21-36.84,14.72-76.03,22.18-116.46,22.18s-79.61-7.46-116.46-22.18c-35.47-14.17-67.29-34.43-94.59-60.21-27.14-25.63-48.42-55.42-63.25-88.54-15.27-34.1-23.01-70.33-23.01-107.67s7.74-73.56,23.01-107.67c14.83-33.12,36.11-62.91,63.25-88.54,27.3-25.79,59.12-46.04,94.59-60.21,36.84-14.72,76.03-22.18,116.46-22.18m0-40c-186.29,0-337.31,142.64-337.31,318.6S12.02,1167.15,198.31,1167.15s337.31-142.64,337.31-318.6-151.02-318.6-337.31-318.6h0Z"/>
      </g>
      <g>
        <path class="cls-6" d="m369.54,1025.49c-85.74,0-166.3-31.49-226.84-88.67-60.27-56.93-93.47-132.55-93.47-212.93s33.19-156,93.47-212.93c60.54-57.18,141.1-88.68,226.84-88.68s166.3,31.49,226.84,88.68c60.27,56.93,93.47,132.55,93.47,212.93s-33.19,156-93.47,212.93c-60.54,57.18-141.1,88.67-226.84,88.67Z"/>
        <path class="cls-6" d="m369.54,439.28c41.2,0,81.13,7.61,118.68,22.61,36.17,14.45,68.63,35.12,96.49,61.42,27.71,26.18,49.45,56.61,64.6,90.45,15.62,34.88,23.54,71.93,23.54,110.12s-7.92,75.24-23.54,110.12c-15.15,33.84-36.89,64.27-64.6,90.45-27.85,26.31-60.31,46.97-96.49,61.42-37.56,15-77.49,22.61-118.68,22.61s-81.13-7.61-118.68-22.61c-36.17-14.45-68.64-35.12-96.49-61.42-27.71-26.18-49.45-56.61-64.6-90.45-15.62-34.88-23.54-71.93-23.54-110.12s7.92-75.24,23.54-110.12c15.15-33.84,36.89-64.27,64.6-90.45,27.85-26.31,60.31-46.97,96.49-61.42,37.56-15,77.49-22.61,118.68-22.61m0-34c-186.29,0-337.31,142.64-337.31,318.6s151.02,318.6,337.31,318.6,337.31-142.64,337.31-318.6-151.02-318.6-337.31-318.6h0Z"/>
      </g>
      <g>
        <path class="cls-1" d="m540.77,903.82c-86.51,0-167.8-31.78-228.9-89.49-60.88-57.5-94.41-133.9-94.41-215.11s33.53-157.6,94.41-215.11c61.1-57.71,142.39-89.49,228.9-89.49s167.8,31.78,228.9,89.49c60.88,57.5,94.41,133.9,94.41,215.11s-33.53,157.6-94.41,215.11c-61.1,57.71-142.39,89.49-228.9,89.49Z"/>
        <path class="cls-1" d="m540.77,308.61c41.96,0,82.64,7.75,120.91,23.04,36.88,14.73,69.98,35.81,98.38,62.63,28.29,26.72,50.48,57.8,65.96,92.36,15.97,35.66,24.06,73.53,24.06,112.57s-8.1,76.92-24.06,112.57c-15.48,34.56-37.67,65.64-65.96,92.36-28.4,26.83-61.5,47.9-98.38,62.63-38.27,15.29-78.95,23.04-120.91,23.04s-82.64-7.75-120.91-23.04c-36.88-14.73-69.98-35.81-98.38-62.63-28.29-26.72-50.48-57.8-65.96-92.36-15.97-35.66-24.06-73.53-24.06-112.57s8.1-76.92,24.06-112.57c15.48-34.56,37.67-65.64,65.96-92.36,28.4-26.83,61.5-47.9,98.38-62.63,38.27-15.29,78.95-23.04,120.91-23.04m0-28c-186.29,0-337.31,142.64-337.31,318.6s151.02,318.6,337.31,318.6,337.31-142.64,337.31-318.6-151.02-318.6-337.31-318.6h0Z"/>
      </g>
      <g>
        <path class="cls-2" d="m712,782.15c-87.28,0-169.3-32.07-230.96-90.31-61.49-58.08-95.35-135.25-95.35-217.29s33.86-159.21,95.35-217.29c61.66-58.24,143.68-90.31,230.96-90.31s169.3,32.07,230.96,90.31c61.49,58.08,95.35,135.25,95.35,217.29s-33.86,159.21-95.35,217.29c-61.66,58.24-143.68,90.31-230.96,90.31Z"/>
        <path class="cls-2" d="m712,177.94c42.73,0,84.16,7.9,123.14,23.47,37.58,15.01,71.32,36.49,100.27,63.84,28.87,27.27,51.51,58.98,67.32,94.27,16.31,36.43,24.59,75.13,24.59,115.02s-8.27,78.59-24.59,115.02c-15.8,35.29-38.45,67-67.32,94.27-28.95,27.35-62.69,48.83-100.27,63.84-38.98,15.57-80.41,23.47-123.14,23.47s-84.16-7.9-123.14-23.47c-37.58-15.01-71.32-36.49-100.27-63.84-28.87-27.26-51.51-58.98-67.32-94.27-16.31-36.43-24.59-75.13-24.59-115.02s8.27-78.59,24.59-115.02c15.8-35.29,38.45-67,67.32-94.27,28.95-27.35,62.69-48.83,100.27-63.84,38.98-15.57,80.41-23.47,123.14-23.47m0-22c-186.29,0-337.31,142.64-337.31,318.6s151.02,318.6,337.31,318.6,337.31-142.64,337.31-318.6-151.02-318.6-337.31-318.6h0Z"/>
      </g>
      <g>
        <path class="cls-9" d="m883.23,660.48c-88.05,0-170.8-32.36-233.02-91.13-62.09-58.65-96.29-136.59-96.29-219.47s34.2-160.82,96.29-219.47c62.22-58.77,144.97-91.13,233.02-91.13s170.8,32.37,233.02,91.13c62.09,58.65,96.29,136.59,96.29,219.47s-34.2,160.82-96.29,219.47c-62.22,58.77-144.97,91.13-233.02,91.13Z"/>
        <path class="cls-9" d="m883.23,47.28c43.49,0,85.67,8.04,125.36,23.9,38.29,15.3,72.66,37.18,102.17,65.05,29.44,27.81,52.55,60.17,68.67,96.18,16.66,37.21,25.11,76.73,25.11,117.48s-8.45,80.27-25.11,117.48c-16.13,36.01-39.23,68.37-68.67,96.18-29.51,27.87-63.88,49.76-102.17,65.05-39.69,15.86-81.87,23.9-125.36,23.9s-85.67-8.04-125.36-23.9c-38.29-15.3-72.66-37.18-102.17-65.05-29.44-27.81-52.55-60.17-68.67-96.18-16.66-37.21-25.11-76.73-25.11-117.48s8.45-80.27,25.11-117.48c16.13-36.01,39.23-68.37,68.67-96.18,29.51-27.87,63.88-49.76,102.17-65.05,39.69-15.86,81.87-23.9,125.36-23.9m0-16c-186.29,0-337.31,142.64-337.31,318.6s151.02,318.6,337.31,318.6,337.31-142.64,337.31-318.6S1069.52,31.28,883.23,31.28h0Z"/>
      </g>
      <g>
        <path class="cls-5" d="m1054.46,538.81c-88.82,0-172.3-32.66-235.08-91.95-62.7-59.22-97.23-137.94-97.23-221.65S756.68,62.78,819.38,3.56c62.78-59.3,146.27-91.95,235.08-91.95s172.3,32.66,235.08,91.95c62.7,59.22,97.23,137.94,97.23,221.65s-34.53,162.43-97.23,221.65c-62.78,59.3-146.27,91.95-235.08,91.95Z"/>
        <path class="cls-5" d="m1054.46-83.39c44.26,0,87.19,8.18,127.59,24.32,38.99,15.58,74,37.87,104.06,66.26,30.02,28.35,53.58,61.35,70.03,98.09,17.01,37.99,25.63,78.33,25.63,119.93s-8.62,81.94-25.63,119.93c-16.45,36.73-40.01,69.74-70.03,98.09-30.06,28.39-65.07,50.69-104.06,66.26-40.4,16.14-83.33,24.32-127.59,24.32s-87.19-8.18-127.59-24.32c-38.99-15.58-74-37.87-104.06-66.26-30.02-28.35-53.58-61.35-70.03-98.09-17.01-37.99-25.63-78.33-25.63-119.93s8.62-81.94,25.63-119.93c16.45-36.73,40.01-69.74,70.03-98.09,30.06-28.39,65.07-50.69,104.06-66.26,40.4-16.14,83.33-24.32,127.59-24.32m0-10c-186.29,0-337.31,142.64-337.31,318.6s151.02,318.6,337.31,318.6,337.31-142.64,337.31-318.6-151.02-318.6-337.31-318.6h0Z"/>
      </g>
      <g>
        <path class="cls-4" d="m1225.69,417.15c-89.59,0-173.81-32.95-237.14-92.77-63.31-59.79-98.17-139.29-98.17-223.83s34.86-164.04,98.17-223.83c63.34-59.82,147.56-92.77,237.14-92.77s173.81,32.95,237.14,92.77c63.31,59.79,98.17,139.29,98.17,223.83s-34.86,164.04-98.17,223.83c-63.34,59.82-147.56,92.77-237.14,92.77Z"/>
        <path class="cls-4" d="m1225.69-214.06c45.03,0,88.7,8.33,129.81,24.75,39.7,15.86,75.35,38.56,105.96,67.47,30.59,28.9,54.61,62.54,71.38,100,17.36,38.76,26.16,79.94,26.16,122.38s-8.8,83.62-26.16,122.38c-16.77,37.46-40.79,71.1-71.38,100-30.61,28.91-66.26,51.61-105.96,67.47-41.11,16.42-84.79,24.75-129.81,24.75s-88.7-8.33-129.81-24.75c-39.7-15.86-75.35-38.56-105.96-67.47-30.59-28.9-54.61-62.54-71.38-100-17.36-38.76-26.16-79.94-26.16-122.38s8.8-83.62,26.16-122.38c16.77-37.46,40.79-71.1,71.38-100,30.61-28.91,66.26-51.61,105.96-67.47,41.11-16.42,84.79-24.75,129.81-24.75m0-4c-186.29,0-337.31,142.64-337.31,318.6s151.02,318.6,337.31,318.6,337.31-142.64,337.31-318.6-151.02-318.6-337.31-318.6h0Z"/>
      </g>
    </g>
  </g>
  <g id="Layer_1" data-name="Layer 1">
    <g>
      <path class="cls-3" d="m175.04,247.13h-36.67l-2.48-11.19c-1.03.5-3.6,2.22-7.71,5.13-2.64,2.13-5.56,4.96-8.78,8.5l-3.82-10.18c-.76-2.02-1.85-4.85-3.28-8.5l-3.62,16.24h-19.44c2.86-13.85,7.28-36.71,13.27-68.58,3.66-21.32,6.73-41.54,9.18-60.67h40.29c1.25,8.81,4.67,29.31,10.26,61.51,3.08,16.83,7.35,39.41,12.8,67.74Zm-42.3-27.6c-.76-2.97-2.1-7.8-4.02-14.47-1.16-3.7-2.93-8.81-5.3-15.31-1.03,3.25-2.64,8.58-4.83,15.99-1.21,4.26-2.64,10.07-4.29,17.42,1.34,0,4.38-.34,9.12-1.01,2.86-.5,5.97-1.37,9.32-2.61Z"/>
      <path class="cls-3" d="m269.09,183.52c0,20.25-5.01,36.18-15.02,47.79-10.32,12.06-24.87,18.09-43.64,18.09-12.07,0-21.38-.76-27.95-2.27l-1.81-62.52c-.58-16.04-1.63-38.17-3.15-66.39,9.7-1.74,19.82-2.61,30.37-2.61,18.81,0,33.54,5.5,44.18,16.49,11.35,11.78,17.03,28.92,17.03,51.41Zm-27.48,10.35c0-8.25-2.12-14.33-6.37-18.26-3.53-3.25-8.04-4.74-13.54-4.46l-.94,52.76c5.72-.45,10.39-2.78,14.01-6.98,4.56-5.22,6.84-12.9,6.84-23.06Z"/>
      <path class="cls-3" d="m364.07,179.73c0,19.8-4.07,36.55-12.2,50.23-8.54,14.3-19.46,21.46-32.78,21.46s-24.83-7.21-33.32-21.62c-8-13.57-12-30.26-12-50.07,0-21.15,4.36-37.75,13.07-49.81,8.22-11.33,18.97-17,32.24-17s23.68,5.69,31.91,17.08c8.71,12.12,13.07,28.69,13.07,49.73Zm-32.24,14.81c0-15.59-4.2-23.39-12.6-23.39s-12.27,7.85-12.27,23.56c0,6.28,1.07,12.15,3.22,17.59,2.41,6.11,5.38,9.17,8.92,9.17s6.48-3.11,9.12-9.34c2.41-5.67,3.62-11.53,3.62-17.59Z"/>
      <path class="cls-3" d="m455.78,160.46c0,10.1-1.92,18.82-5.76,26.17-3.26,6.17-7.33,10.55-12.2,13.13,3.13,1.68,5.67,4.46,7.64,8.33,1.97,3.87,2.95,7.99,2.95,12.37,0,10.88-4.63,18.85-13.88,23.9-7.15,3.93-16.54,5.89-28.15,5.89-10.01,0-20.76-1.04-32.24-3.11-.31-13.07-.96-34.39-1.94-63.95-.67-15.87-1.68-37.64-3.02-65.3,8.49-2.07,19.24-3.11,32.24-3.11,36.24,0,54.36,15.23,54.36,45.69Zm-29.49,55.79c0-6.51-3.71-9.76-11.13-9.76-.76,0-1.54.06-2.35.17l-.4,20.62c9.25.5,13.88-3.17,13.88-11.02Zm2.21-39.97c0-4.32-1.39-7.63-4.16-9.93-2.5-2.07-5.79-3.06-9.85-2.95l-1.01,25.33c10.01.45,15.02-3.7,15.02-12.45Z"/>
      <path class="cls-3" d="m530.65,117.88l-2.88,53.26c-1.65-.34-5.23-.93-10.73-1.77-3.75-.45-7.87-.73-12.33-.84l-1.01,16.07c4.92.17,12.94.03,24.06-.42-.49,2.08-1.27,5.95-2.35,11.61-.63,3.42-1.18,7.38-1.68,11.86-1.3-.39-4.54-.9-9.72-1.51-2.41-.17-5.99-.22-10.73-.17l-.67,18.76c3.35-.06,9.52-.42,18.5-1.09,1.7-.17,4.49-.84,8.38-2.02-.36,1.74-1.18,5.92-2.48,12.54-.63,3.42-1.39,7.74-2.28,12.96h-59.99l-1.94-65.97c-.36-15.09-1.23-36.18-2.61-63.28h70.45Z"/>
      <path class="cls-3" d="m139.58,296.67l-2.61,68.75c-.49,14.81-1.07,34.98-1.74,60.5h-37.61l-4.56-129.24h46.52Z"/>
      <path class="cls-3" d="m214.66,400.42c-.45,2.24-1.27,6.48-2.48,12.71-.63,3.65-1.16,7.91-1.61,12.79h-60.67c-.22-13.18-.78-34.89-1.68-65.13-.58-15.48-1.63-36.85-3.15-64.12h46.52l-3.82,107.2c4.33,0,10.84-.59,19.51-1.77,1.79-.22,4.25-.78,7.37-1.68Z"/>
      <path class="cls-3" d="m287.39,400.42c-.45,2.24-1.27,6.48-2.48,12.71-.63,3.65-1.16,7.91-1.61,12.79h-60.67c-.22-13.18-.78-34.89-1.68-65.13-.58-15.48-1.63-36.85-3.15-64.12h46.52l-3.82,107.2c4.33,0,10.84-.59,19.51-1.77,1.79-.22,4.25-.78,7.37-1.68Z"/>
      <path class="cls-3" d="m381.3,296.67l-1.54,54.44c-.45,15.54-.67,39.04-.67,70.51-11.44,5.16-23.1,7.74-34.99,7.74-14.66,0-25.81-3.67-33.45-11.02-6.48-6.23-11.06-15.93-13.74-29.11-1.56-7.57-3.04-21.43-4.42-41.57-1.34-18.62-2.17-35.62-2.48-50.99h43.24c-.22,7.4-.49,19.47-.8,36.18-.13,9.31-.09,22.52.13,39.63.04,13.01.94,21.79,2.68,26.34,1.83,4.83,5.5,7.24,10.99,7.24,1.56,0,3.31-.56,5.23-1.68,0-11.56-.27-29.93-.8-55.11-.45-12.62-1.27-30.15-2.48-52.59h33.11Z"/>
      <path class="cls-3" d="m450.62,349.6c-3.31-.95-5.81-1.43-7.51-1.43-2.1,0-4.02.9-5.76,2.69-2.1,2.19-3.15,5.02-3.15,8.5,0,2.69,1.92,7.88,5.76,15.57,3.84,7.69,5.76,14.75,5.76,21.2,0,9.37-2.84,17.05-8.51,23.06-5.41,5.78-12.09,8.67-20.04,8.67-7.33,0-12.74-.65-16.22-1.94-.4-2.58-1.1-6.79-2.08-12.62-.63-3.14-1.5-7.32-2.61-12.54,4.92,1.51,8.22,2.27,9.92,2.27,6.66,0,9.99-3.17,9.99-9.51,0-4.6-1.34-8.72-4.02-12.37-4.38-4.82-8.76-9.68-13.14-14.56-8.49-9.42-12.74-20.62-12.74-33.57s4.02-23.76,12.07-30.71c7.02-6.06,16.36-9.09,28.02-9.09,6.61,0,14.03,1.21,22.26,3.62l2.01,52.76Z"/>
      <path class="cls-3" d="m537.69,296.67l-1.94,52.93c-1.74-.34-4.54-.76-8.38-1.26-2.37-.17-6.21-.34-11.53-.5-.27,3.31-.74,11.3-1.41,23.98-.49,12.28-1.3,30.32-2.41,54.1h-32.44c-.36-11.33-1.03-29.14-2.01-53.43-.45-8.41-.92-16.63-1.41-24.65l-10.59.5-9.59,1.26-1.68-52.93h83.39Z"/>
      <path class="cls-3" d="m631.67,345.05c0,10.32-2.3,19.47-6.9,27.43-4.07,6.96-9.16,11.95-15.28,14.98,1.3,2.52,4.49,7.83,9.59,15.9,2.55,3.7,6.44,8.58,11.66,14.64-2.1.95-6.73,3.37-13.88,7.24-5.01,2.86-9.72,5.67-14.14,8.41-1.3-2.02-4.18-7.24-8.65-15.65-2.06-4.26-5.07-11.44-9.05-21.54h-.13l-.67,29.45h-37.74c-.49-12.23-1.18-32.4-2.08-60.5-.4-16.55-1.32-39.46-2.75-68.75,12.29-1.63,23.51-2.44,33.65-2.44,37.58,0,56.38,16.94,56.38,50.82Zm-30.43,18.18c0-5.33-1.79-9.14-5.36-11.44-2.64-1.68-5.94-2.41-9.92-2.19l-.4,28.78c3.71,0,7.02-1.04,9.92-3.11,3.84-2.69,5.76-6.7,5.76-12.03Z"/>
      <path class="cls-3" d="m717.54,425.92h-36.67l-2.48-11.19c-1.03.5-3.6,2.22-7.71,5.13-2.64,2.13-5.56,4.96-8.78,8.5l-3.82-10.18c-.76-2.02-1.85-4.85-3.28-8.5l-3.62,16.24h-19.44c2.86-13.85,7.28-36.71,13.27-68.58,3.66-21.32,6.73-41.54,9.18-60.67h40.29c1.25,8.81,4.67,29.31,10.26,61.51,3.08,16.83,7.35,39.41,12.8,67.74Zm-42.3-27.6c-.76-2.97-2.1-7.8-4.02-14.47-1.16-3.7-2.93-8.81-5.3-15.31-1.03,3.25-2.64,8.58-4.83,15.99-1.21,4.26-2.64,10.07-4.29,17.42,1.34,0,4.38-.34,9.12-1.01,2.86-.5,5.97-1.37,9.32-2.61Z"/>
      <path class="cls-3" d="m801.87,296.67l-1.94,52.93c-1.74-.34-4.54-.76-8.38-1.26-2.37-.17-6.21-.34-11.53-.5-.27,3.31-.74,11.3-1.41,23.98-.49,12.28-1.3,30.32-2.41,54.1h-32.44c-.36-11.33-1.03-29.14-2.01-53.43-.45-8.41-.92-16.63-1.41-24.65l-10.59.5-9.59,1.26-1.68-52.93h83.39Z"/>
      <path class="cls-3" d="m895.72,358.52c0,19.8-4.07,36.55-12.2,50.23-8.54,14.3-19.46,21.46-32.78,21.46s-24.83-7.21-33.32-21.62c-8-13.57-12-30.26-12-50.07,0-21.15,4.36-37.75,13.07-49.81,8.22-11.33,18.97-17,32.24-17s23.68,5.69,31.91,17.08c8.71,12.12,13.07,28.69,13.07,49.73Zm-32.24,14.81c0-15.59-4.2-23.39-12.6-23.39s-12.27,7.85-12.27,23.56c0,6.28,1.07,12.15,3.22,17.59,2.41,6.11,5.38,9.17,8.92,9.17s6.48-3.11,9.12-9.34c2.41-5.67,3.62-11.53,3.62-17.59Z"/>
      <path class="cls-3" d="m990.84,345.05c0,10.32-2.3,19.47-6.9,27.43-4.07,6.96-9.16,11.95-15.28,14.98,1.3,2.52,4.49,7.83,9.59,15.9,2.55,3.7,6.44,8.58,11.66,14.64-2.1.95-6.73,3.37-13.88,7.24-5.01,2.86-9.72,5.67-14.14,8.41-1.3-2.02-4.18-7.24-8.65-15.65-2.06-4.26-5.07-11.44-9.05-21.54h-.13l-.67,29.45h-37.74c-.49-12.23-1.18-32.4-2.08-60.5-.4-16.55-1.32-39.46-2.75-68.75,12.29-1.63,23.51-2.44,33.65-2.44,37.58,0,56.38,16.94,56.38,50.82Zm-30.43,18.18c0-5.33-1.79-9.14-5.36-11.44-2.64-1.68-5.94-2.41-9.92-2.19l-.4,28.78c3.71,0,7.02-1.04,9.92-3.11,3.84-2.69,5.76-6.7,5.76-12.03Z"/>
      <path class="cls-3" d="m163.04,475.46l-2.75,52.93c-1.65-.34-5.16-.81-10.52-1.43-3.22-.17-7.02-.28-11.4-.34l-1.14,27.09c4.6.11,11.71-.31,21.32-1.26-.45,2.52-1.14,6.68-2.08,12.45-.49,3.42-1.03,7.55-1.61,12.37-1.25-.34-4.13-.84-8.65-1.51-3.35-.34-6.66-.45-9.92-.34l-.54,29.28h-37.61l-2.08-65.97c-.36-15.15-1.36-36.24-3.02-63.28h69.98Z"/>
      <path class="cls-3" d="m258.77,475.46l-1.54,54.44c-.45,15.54-.67,39.04-.67,70.51-11.44,5.16-23.1,7.74-34.99,7.74-14.66,0-25.81-3.67-33.45-11.02-6.48-6.23-11.06-15.93-13.74-29.11-1.56-7.57-3.04-21.43-4.42-41.57-1.34-18.62-2.17-35.62-2.48-50.99h43.24c-.22,7.4-.49,19.47-.8,36.18-.13,9.31-.09,22.52.13,39.63.04,13.01.94,21.79,2.68,26.34,1.83,4.83,5.5,7.24,10.99,7.24,1.56,0,3.31-.56,5.23-1.68,0-11.56-.27-29.93-.8-55.11-.45-12.62-1.27-30.15-2.48-52.59h33.11Z"/>
      <path class="cls-3" d="m346.65,475.46c-.63,11.33-1.5,31.11-2.61,59.32-.67,20.76-1.23,44.63-1.68,71.61-5.85-5.78-14.77-14.39-26.75-25.83-5.18-4.54-12.92-11.36-23.19-20.45l-.67,44.6h-21.58c-.36-11.39-1.18-32.87-2.48-64.45-1.12-25.58-2.26-47.18-3.42-64.79h33.65l24.94,29.62c0-6.79-.09-12.12-.27-15.99-.13-3.42-.4-7.96-.8-13.63h24.87Z"/>
      <path class="cls-3" d="m443.71,541.09c0,20.25-5.01,36.18-15.02,47.79-10.32,12.06-24.87,18.09-43.64,18.09-12.07,0-21.38-.76-27.95-2.27l-1.81-62.52c-.58-16.04-1.63-38.17-3.15-66.39,9.7-1.74,19.82-2.61,30.37-2.61,18.81,0,33.54,5.5,44.18,16.49,11.35,11.78,17.03,28.92,17.03,51.41Zm-27.48,10.35c0-8.25-2.12-14.33-6.37-18.26-3.53-3.25-8.04-4.74-13.54-4.46l-.94,52.76c5.72-.45,10.39-2.78,14.01-6.98,4.56-5.22,6.84-12.9,6.84-23.06Z"/>
      <path class="cls-3" d="m530.79,604.7h-36.67l-2.48-11.19c-1.03.5-3.6,2.22-7.71,5.13-2.64,2.13-5.56,4.96-8.78,8.5l-3.82-10.18c-.76-2.02-1.85-4.85-3.28-8.5l-3.62,16.24h-19.44c2.86-13.85,7.28-36.71,13.27-68.58,3.66-21.32,6.73-41.54,9.18-60.67h40.29c1.25,8.81,4.67,29.31,10.26,61.51,3.08,16.83,7.35,39.41,12.8,67.74Zm-42.3-27.6c-.76-2.97-2.1-7.8-4.02-14.47-1.16-3.7-2.93-8.81-5.3-15.31-1.03,3.25-2.64,8.58-4.83,15.99-1.21,4.26-2.64,10.07-4.29,17.42,1.34,0,4.38-.34,9.12-1.01,2.86-.5,5.97-1.37,9.32-2.61Z"/>
      <path class="cls-3" d="m641.59,475.46c-.63,11.78-1.54,33.27-2.75,64.45-.63,19.18-1.1,40.78-1.41,64.79h-24.27l-.67-39.63-23.66,42.74-25.54-42.41-.67,39.3h-24.13c-.31-12.85-.92-34.55-1.81-65.13-.63-17.61-1.77-38.99-3.42-64.12h38.41c1.34,4.1,3.64,10.72,6.9,19.86,2.5,6.51,5.92,14.19,10.26,23.06,1.92-3.81,5.45-11.7,10.59-23.64,1.83-4.43,4.18-10.85,7.04-19.27h35.13Z"/>
      <path class="cls-3" d="m717.54,475.46l-2.88,53.26c-1.65-.34-5.23-.93-10.73-1.77-3.75-.45-7.87-.73-12.33-.84l-1.01,16.07c4.92.17,12.94.03,24.07-.42-.49,2.08-1.27,5.95-2.35,11.61-.63,3.42-1.18,7.38-1.68,11.86-1.3-.39-4.54-.9-9.72-1.51-2.41-.17-5.99-.22-10.73-.17l-.67,18.76c3.35-.06,9.52-.42,18.5-1.09,1.7-.17,4.49-.84,8.38-2.02-.36,1.74-1.18,5.92-2.48,12.54-.63,3.42-1.39,7.74-2.28,12.96h-60l-1.94-65.97c-.36-15.09-1.23-36.18-2.61-63.28h70.45Z"/>
      <path class="cls-3" d="m805.69,475.46c-.63,11.33-1.5,31.11-2.61,59.32-.67,20.76-1.23,44.63-1.68,71.61-5.85-5.78-14.77-14.39-26.75-25.83-5.18-4.54-12.92-11.36-23.19-20.45l-.67,44.6h-21.58c-.36-11.39-1.18-32.87-2.48-64.45-1.12-25.58-2.26-47.18-3.42-64.79h33.65l24.94,29.62c0-6.79-.09-12.12-.27-15.99-.13-3.42-.4-7.96-.8-13.63h24.87Z"/>
      <path class="cls-3" d="m893.04,475.46l-1.94,52.93c-1.74-.34-4.54-.76-8.38-1.26-2.37-.17-6.21-.34-11.53-.5-.27,3.31-.74,11.3-1.41,23.98-.49,12.28-1.3,30.32-2.41,54.1h-32.44c-.36-11.33-1.03-29.14-2.01-53.43-.45-8.41-.92-16.63-1.41-24.65l-10.59.5-9.59,1.26-1.68-52.93h83.39Z"/>
      <path class="cls-3" d="m978.97,604.7h-36.67l-2.48-11.19c-1.03.5-3.6,2.22-7.71,5.13-2.64,2.13-5.56,4.96-8.78,8.5l-3.82-10.18c-.76-2.02-1.86-4.85-3.28-8.5l-3.62,16.24h-19.44c2.86-13.85,7.28-36.71,13.27-68.58,3.66-21.32,6.73-41.54,9.18-60.67h40.29c1.25,8.81,4.67,29.31,10.26,61.51,3.08,16.83,7.35,39.41,12.8,67.74Zm-42.3-27.6c-.76-2.97-2.1-7.8-4.02-14.47-1.16-3.7-2.93-8.81-5.3-15.31-1.03,3.25-2.64,8.58-4.83,15.99-1.21,4.26-2.64,10.07-4.29,17.42,1.34,0,4.38-.34,9.12-1.01,2.86-.5,5.97-1.37,9.32-2.61Z"/>
      <path class="cls-3" d="m1051.03,579.21c-.45,2.24-1.27,6.48-2.48,12.71-.63,3.65-1.16,7.91-1.61,12.79h-60.67c-.22-13.18-.78-34.89-1.68-65.13-.58-15.48-1.63-36.85-3.15-64.12h46.52l-3.82,107.2c4.33,0,10.84-.59,19.51-1.77,1.79-.22,4.24-.78,7.37-1.68Z"/>
      <path class="cls-3" d="m1118,528.39c-3.31-.95-5.81-1.43-7.51-1.43-2.1,0-4.02.9-5.76,2.69-2.1,2.19-3.15,5.02-3.15,8.5,0,2.69,1.92,7.88,5.76,15.57,3.84,7.69,5.76,14.75,5.76,21.2,0,9.37-2.84,17.05-8.51,23.06-5.41,5.78-12.09,8.67-20.04,8.67-7.33,0-12.74-.65-16.22-1.94-.4-2.58-1.1-6.79-2.08-12.62-.63-3.14-1.5-7.32-2.61-12.54,4.92,1.51,8.22,2.27,9.92,2.27,6.66,0,9.99-3.17,9.99-9.51,0-4.6-1.34-8.72-4.02-12.37-4.38-4.82-8.76-9.68-13.14-14.56-8.49-9.42-12.74-20.62-12.74-33.57s4.02-23.76,12.07-30.71c7.02-6.06,16.36-9.09,28.02-9.09,6.61,0,14.03,1.21,22.26,3.62l2.01,52.76Z"/>
    </g>
  </g>
  <g id="Layer_3" data-name="Layer 3">
    <image width="1042" height="1042" transform="translate(1042.41 687.62) scale(.12)" xlink:href="../adobe-illustrator-logo.png"/>
  </g>
</svg>